<svg xmlns="http://www.w3.org/2000/svg" width="165" height="43.74" viewBox="0 0 165 43.74"><defs><style>.a{fill:#00244c;}</style></defs><g transform="translate(-987 -3707.882)"><path class="a" d="M785.906,878.721h-6.045v-.592q0-9.848,0-19.7a3.676,3.676,0,0,0-.035-.571.879.879,0,0,0-.687-.775.931.931,0,0,0-.992.326,1.75,1.75,0,0,0-.288.538q-2.768,7.866-5.525,15.735a12.11,12.11,0,0,1-1.08,2.363,6.2,6.2,0,0,1-4.363,3.011,9.438,9.438,0,0,1-4.414-.2,5.509,5.509,0,0,1-4.051-4.5,9.368,9.368,0,0,1-.17-1.8c-.013-4.681-.007-9.362-.008-14.043,0-.177,0-.355-.011-.53a.977.977,0,0,0-.719-.906,1,1,0,0,0-1.083.419,2.765,2.765,0,0,0-.294.637q-2.176,6.366-4.345,12.735-1.267,3.716-2.537,7.432c-.047.138-.1.274-.152.42h-6.464c.055-.194.093-.36.148-.52q3.285-9.484,6.572-18.968c.361-1.042.719-2.085,1.1-3.121a9.3,9.3,0,0,1,1.269-2.365,5.96,5.96,0,0,1,3.629-2.341,9.59,9.59,0,0,1,4.506.075,5.509,5.509,0,0,1,4.276,4.6,10.144,10.144,0,0,1,.169,1.886c.014,4.666.007,9.333.007,14,0,.147-.005.295.006.441a.936.936,0,0,0,.621.883.951.951,0,0,0,1.086-.277,1.672,1.672,0,0,0,.323-.568q2.761-7.845,5.509-15.694a12.062,12.062,0,0,1,1.229-2.633,6.113,6.113,0,0,1,4.526-2.828,10.117,10.117,0,0,1,3.857.184,5.572,5.572,0,0,1,4.32,4.81,10.433,10.433,0,0,1,.106,1.45q.01,10.223,0,20.447Z" transform="translate(366.094 2856.699)"/><path class="a" d="M529.329,852.336c1.147.034,2.3.038,3.442.111a12.276,12.276,0,0,1,4.186,1,9.887,9.887,0,0,1,5.493,6.175,18.333,18.333,0,0,1,.912,5.6,21.39,21.39,0,0,1-.635,6.168,12.582,12.582,0,0,1-1.006,2.585,9.776,9.776,0,0,1-6.734,5.051,15.525,15.525,0,0,1-3.545.409c-1.81.008-3.622,0-5.431-.062a12.192,12.192,0,0,1-3.918-.811,9.712,9.712,0,0,1-5.855-6.045,16.447,16.447,0,0,1-.908-4.26,25.792,25.792,0,0,1,.01-4.717,15.989,15.989,0,0,1,1.08-4.623,9.872,9.872,0,0,1,7.156-6.113,16.032,16.032,0,0,1,3.631-.432c.707-.01,1.413,0,2.12,0Zm-.022,6.021v.026c-.6,0-1.208-.02-1.811.006a15.8,15.8,0,0,0-1.845.155,4.507,4.507,0,0,0-3.838,3.273,9.411,9.411,0,0,0-.295,1.2,18.043,18.043,0,0,0-.152,4.752,8.79,8.79,0,0,0,.659,2.824,4.267,4.267,0,0,0,2.686,2.448,8.2,8.2,0,0,0,2.567.365c1.354,0,2.71.022,4.063-.009a11.368,11.368,0,0,0,2.014-.21,4.275,4.275,0,0,0,3.378-2.966,8.677,8.677,0,0,0,.333-1.233,18.145,18.145,0,0,0,.155-5.1,8.482,8.482,0,0,0-.676-2.729,4.135,4.135,0,0,0-2.6-2.354,7.929,7.929,0,0,0-1.723-.346C531.251,858.377,530.277,858.385,529.307,858.357Z" transform="translate(502.619 2856.007)"/><path class="a" d="M438.56,879.464v-6c.19-.007.376-.02.562-.02q7.178,0,14.356,0a3.663,3.663,0,0,0,1.3-.184,2.049,2.049,0,0,0,1.417-1.893,3.264,3.264,0,0,0-.032-.835,2.124,2.124,0,0,0-1.286-1.627,4.061,4.061,0,0,0-1.677-.333c-2.062-.01-4.123,0-6.184-.011a12.473,12.473,0,0,1-4.29-.7,6.689,6.689,0,0,1-4.549-5.68,10.856,10.856,0,0,1,.118-3.994,6.751,6.751,0,0,1,5.114-5.343,11.767,11.767,0,0,1,3.185-.427q6.692-.014,13.384,0h.462v6c-.186,0-.371.013-.557.013q-6.472,0-12.943,0a6.091,6.091,0,0,0-.924.063,2.283,2.283,0,0,0-.08,4.483,7,7,0,0,0,1.4.13c1.9.014,3.8,0,5.7.01a13.835,13.835,0,0,1,3.84.5,10.176,10.176,0,0,1,1.083.377,6.439,6.439,0,0,1,3.942,4.514,10.7,10.7,0,0,1-.093,5.842,6.726,6.726,0,0,1-5,4.713,12.712,12.712,0,0,1-3.408.421q-7.178.011-14.356,0C438.895,879.485,438.737,879.472,438.56,879.464Z" transform="translate(548.95 2855.961)"/><path class="a" d="M672.527,852.478h6.18v.584q0,8.5.006,17a5.818,5.818,0,0,0,.15,1.309,2.457,2.457,0,0,0,1.791,1.892,5.525,5.525,0,0,0,1.432.213c1.457.027,2.915.018,4.372,0a5.5,5.5,0,0,0,1.094-.119,2.642,2.642,0,0,0,2.176-2.313,6.579,6.579,0,0,0,.077-1.01q.007-8.5,0-17v-.555h5.91c.01.139.026.266.026.394q0,9.1-.006,18.194a10.9,10.9,0,0,1-.373,2.836,6.949,6.949,0,0,1-5.185,5.2,10.6,10.6,0,0,1-2.746.391q-3.29.022-6.58,0a10.618,10.618,0,0,1-2.746-.392,6.983,6.983,0,0,1-5.251-5.4,11.879,11.879,0,0,1-.33-2.843q-.007-8.942,0-17.885Z" transform="translate(408.187 2855.921)"/><path class="a" d="M626.05,879.485h-.461c-3.282,0-6.565.009-9.847,0a14.714,14.714,0,0,1-4.27-.579,8.1,8.1,0,0,1-5.924-6.583,13.679,13.679,0,0,1-.254-2.72q0-8.321,0-16.643v-.468c.364-.1,5.615-.109,6.1-.015v.551q0,8.189.006,16.378a6.863,6.863,0,0,0,.126,1.313,3,3,0,0,0,1.9,2.271,6.75,6.75,0,0,0,2.678.46h9.948Z" transform="translate(448.55 2855.962)"/><path d="M550.421,947.344h-1.347c-.105-.335-.127-8.2-.024-8.7H550.1l.291.765c.1-.136.161-.232.232-.323a1.381,1.381,0,0,1,2.289.05,2.948,2.948,0,0,1,.481,1.222,6.45,6.45,0,0,1-.053,2.758,3.474,3.474,0,0,1-.434,1,1.386,1.386,0,0,1-2.338.086,1.692,1.692,0,0,0-.152-.176Zm0-5.766c.038.38.062.747.115,1.11a1.84,1.84,0,0,0,.162.5.59.59,0,0,0,.566.355.552.552,0,0,0,.51-.363,2.067,2.067,0,0,0,.157-.457,5.733,5.733,0,0,0,.005-2.151,1.607,1.607,0,0,0-.2-.533.591.591,0,0,0-1-.03,1.218,1.218,0,0,0-.2.485C550.48,940.856,550.455,941.223,550.417,941.579Z" transform="translate(482.354 2804.278)"/><path d="M614.686,936.028v-3.153h1.4v8.41h-1.044l-.278-.738c-.1.128-.164.222-.236.312a1.407,1.407,0,0,1-2.276-.018,2.866,2.866,0,0,1-.459-.942,6.175,6.175,0,0,1,.005-3.268,3.119,3.119,0,0,1,.434-.907,1.346,1.346,0,0,1,2.239.011C614.513,935.808,614.571,935.873,614.686,936.028Zm-.013,2.271-.026,0c-.012-.263,0-.53-.04-.789a3.448,3.448,0,0,0-.175-.721.582.582,0,0,0-.581-.392.576.576,0,0,0-.536.388,1.475,1.475,0,0,0-.114.331,6.045,6.045,0,0,0,0,2.356,1.277,1.277,0,0,0,.156.406.6.6,0,0,0,1.048.01.957.957,0,0,0,.136-.367C614.593,939.113,614.629,938.706,614.673,938.3Z" transform="translate(444.778 2807.657)"/><path d="M526.637,944.689h-1.371c-.088-.329-.12-5.285-.038-6.023h1.1l.212.749c.1-.12.168-.2.233-.289a1.557,1.557,0,0,1,1.615-.569,1.341,1.341,0,0,1,1.122,1.055,4.435,4.435,0,0,1,.161,1.085c.021,1.25.011,2.5.011,3.75a2.191,2.191,0,0,1-.027.235h-1.424c-.008-.151-.022-.305-.022-.46,0-1.015.006-2.029-.006-3.044a5.05,5.05,0,0,0-.1-.916.547.547,0,0,0-.5-.49.611.611,0,0,0-.665.335,2.436,2.436,0,0,0-.241.836c-.048.777-.052,1.557-.065,2.336C526.63,943.733,526.637,944.188,526.637,944.689Z" transform="translate(496.644 2804.265)"/><path d="M475.806,938.827h1.424c.008.161.022.316.022.47,0,1.045-.006,2.09.006,3.135a3.992,3.992,0,0,0,.1.828.566.566,0,0,0,.5.492.62.62,0,0,0,.663-.342,1.97,1.97,0,0,0,.226-.751c.045-1.073.055-2.147.077-3.22,0-.189,0-.378,0-.6H480.2c.086.316.115,5.379.032,6.015h-1.1l-.222-.744c-.083.1-.137.168-.187.234a1.576,1.576,0,0,1-1.643.613,1.4,1.4,0,0,1-1.172-1.172,5.09,5.09,0,0,1-.131-1.048c-.016-1.207-.007-2.414-.005-3.621C475.776,939.036,475.793,938.951,475.806,938.827Z" transform="translate(526.305 2804.083)"/><path d="M514.206,941.7a4.046,4.046,0,0,1-.367,1.845,2.154,2.154,0,0,1-2.623,1.163,2.038,2.038,0,0,1-1.166-.891,3.362,3.362,0,0,1-.484-1.361,5.017,5.017,0,0,1,.14-2.27,2.184,2.184,0,0,1,1.51-1.591,2.137,2.137,0,0,1,2.555,1.06A4,4,0,0,1,514.206,941.7Zm-1.458-.06-.023,0a5.489,5.489,0,0,0-.043-.7,2.8,2.8,0,0,0-.228-.8.663.663,0,0,0-1.2,0,.946.946,0,0,0-.105.242,4.956,4.956,0,0,0,.019,2.572.714.714,0,0,0,.674.6c.313.008.552-.183.7-.57a1.118,1.118,0,0,0,.074-.253C512.663,942.367,512.7,942,512.748,941.638Z" transform="translate(506.057 2804.281)"/><path d="M452.24,941.65a4.018,4.018,0,0,1,.35-1.865,2.163,2.163,0,0,1,2.7-1.157,1.987,1.987,0,0,1,1.114.888,3.3,3.3,0,0,1,.482,1.406,4.882,4.882,0,0,1-.237,2.433,2.165,2.165,0,0,1-2.712,1.362,2.115,2.115,0,0,1-1.319-1.159A3.908,3.908,0,0,1,452.24,941.65Zm3.239-.008-.051-.005a3.535,3.535,0,0,0,0-.529,4.884,4.884,0,0,0-.189-.857.657.657,0,0,0-.669-.478.681.681,0,0,0-.637.464,1.432,1.432,0,0,0-.1.292,5.418,5.418,0,0,0,.006,2.277c.114.51.374.757.733.76s.64-.255.748-.747C455.4,942.433,455.427,942.035,455.478,941.643Z" transform="translate(540.434 2804.268)"/><path d="M574.492,941.544a3.957,3.957,0,0,1,.36-1.762,2.154,2.154,0,0,1,2.66-1.16,2,2,0,0,1,1.2.978,3.272,3.272,0,0,1,.419,1.246,5.223,5.223,0,0,1-.136,2.271,2.193,2.193,0,0,1-2.765,1.613,2.128,2.128,0,0,1-1.377-1.215A4.288,4.288,0,0,1,574.492,941.544Zm1.456.113.024,0a6.554,6.554,0,0,0,.042.7,3.712,3.712,0,0,0,.2.765.642.642,0,0,0,.609.436.659.659,0,0,0,.629-.408,1.725,1.725,0,0,0,.149-.412,5.315,5.315,0,0,0,.006-2.147,1.554,1.554,0,0,0-.163-.454.67.67,0,0,0-1.21.006,1.125,1.125,0,0,0-.137.37C576.034,940.9,575.995,941.278,575.948,941.657Z" transform="translate(467.04 2804.265)"/><path d="M443.192,934.305l-.478,1.151-.338-.136a3.768,3.768,0,0,0-.367-.15c-.366-.106-.747-.168-1.014.18a1.009,1.009,0,0,0-.052,1.163,2.034,2.034,0,0,0,.467.519c.234.2.5.359.745.548a2.616,2.616,0,0,1,.96,2.981,1.767,1.767,0,0,1-1.394,1.324,3.665,3.665,0,0,1-2.422-.309v-1.438c.155.076.282.137.408.2a2.487,2.487,0,0,0,1.312.316.736.736,0,0,0,.726-.692,1.147,1.147,0,0,0-.382-1.034c-.281-.257-.589-.486-.894-.715a2.349,2.349,0,0,1-1.038-1.478,4.2,4.2,0,0,1-.011-1.394,1.843,1.843,0,0,1,1.832-1.55A3.165,3.165,0,0,1,443.192,934.305Z" transform="translate(548.199 2807.112)"/><path d="M631.14,942.035h-2.818c-.154,1.08.5,1.734,1.508,1.549a9.509,9.509,0,0,0,1.032-.31v1.142a3.094,3.094,0,0,1-2.655.18,1.887,1.887,0,0,1-1.043-1.031,4.618,4.618,0,0,1,.075-3.966,1.919,1.919,0,0,1,2.307-1.022,1.886,1.886,0,0,1,1.412,1.327A5.287,5.287,0,0,1,631.14,942.035Zm-1.431-1.068a1.53,1.53,0,0,0-.218-1.046.529.529,0,0,0-.914-.03,1.293,1.293,0,0,0-.233,1.076Z" transform="translate(435.666 2804.27)"/><path d="M592.026,944.849h-1.8l-1.58-6.032a13.725,13.725,0,0,1,1.5-.02c.168.755.337,1.5.5,2.238s.309,1.482.482,2.31c.336-1.564.654-3.045.973-4.531h1.514Z" transform="translate(458.545 2804.108)"/><path d="M490.951,938.042l-.555-.054c-.084-.37-.078-.683.314-.859a1.008,1.008,0,0,0,.562-.787c.056-.257.145-.506.222-.766h.934v1.283h1.062V938c-.172.005-.342.012-.512.015s-.319,0-.5,0c-.016.143-.038.255-.038.367,0,.911,0,1.822,0,2.734a2.022,2.022,0,0,0,.006.22.458.458,0,0,0,.562.466c.172-.013.342-.058.578-.1,0,.329,0,.63,0,.932,0,.166-.109.234-.238.277a2.225,2.225,0,0,1-1.553,0,1.2,1.2,0,0,1-.726-.887,3.884,3.884,0,0,1-.109-.87c-.014-.882-.005-1.763-.005-2.645Z" transform="translate(517.551 2806.036)"/><path d="M468,932.853h1.341c.088.325.109,7.9.022,8.425H468Z" transform="translate(530.969 2807.67)"/><path d="M564.258,944.673v-6.015h1.17l.179.81a6.33,6.33,0,0,1,.687-.783,1.1,1.1,0,0,1,1.053-.082l-.151,1.352h-.4a.893.893,0,0,0-.917.625,3.482,3.482,0,0,0-.174.989c-.023.882-.007,1.765-.009,2.648,0,.143-.012.287-.019.457Z" transform="translate(473.184 2804.273)"/><path d="M644.707,938.6l-.156,1.4c-.142,0-.256,0-.369,0a.932.932,0,0,0-.971.681,3.255,3.255,0,0,0-.141.907c-.018.882-.006,1.764-.006,2.647v.493a14.031,14.031,0,0,1-1.438.006v-6.032h1.16l.185.864c.295-.411.468-.875.962-.965A4.292,4.292,0,0,1,644.707,938.6Z" transform="translate(426.737 2804.236)"/><path d="M604.052,938.85h1.372v6.023h-1.359C603.968,944.565,603.951,939.313,604.052,938.85Z" transform="translate(449.335 2804.07)"/><path d="M503.327,944.882h-1.3a57.756,57.756,0,0,1-.02-6.031h1.3C503.408,939.165,503.425,944.4,503.327,944.882Z" transform="translate(510.597 2804.069)"/><path d="M653.205,951.645a.8.8,0,0,1-.877-.908.9.9,0,0,1,1.794.041A.8.8,0,0,1,653.205,951.645Z" transform="translate(420.313 2797.458)"/><path d="M502.6,934.458a.781.781,0,1,1-.046-1.561.747.747,0,0,1,.816.782A.733.733,0,0,1,502.6,934.458Z" transform="translate(510.687 2807.644)"/><path d="M604.684,934.46a.712.712,0,0,1-.788-.748.722.722,0,0,1,.769-.814.746.746,0,0,1,.8.8A.735.735,0,0,1,604.684,934.46Z" transform="translate(449.389 2807.643)"/></g></svg>